<svg width="20" height="20" viewBox="0 0 20 20" fill="none" xmlns="http://www.w3.org/2000/svg">
<path d="M5.99951 20C5.44951 20 4.97884 19.8043 4.58751 19.413C4.19618 19.0217 4.00018 18.5507 3.99951 18C3.99885 17.4493 4.19484 16.9787 4.58751 16.588C4.98018 16.1973 5.45085 16.0013 5.99951 16C6.54818 15.9987 7.01918 16.1947 7.41251 16.588C7.80585 16.9813 8.00151 17.452 7.99951 18C7.99751 18.548 7.80185 19.019 7.41251 19.413C7.02318 19.807 6.55218 20.0027 5.99951 20ZM15.9995 20C15.4495 20 14.9788 19.8043 14.5875 19.413C14.1962 19.0217 14.0002 18.5507 13.9995 18C13.9988 17.4493 14.1948 16.9787 14.5875 16.588C14.9802 16.1973 15.4508 16.0013 15.9995 16C16.5482 15.9987 17.0192 16.1947 17.4125 16.588C17.8058 16.9813 18.0015 17.452 17.9995 18C17.9975 18.548 17.8018 19.019 17.4125 19.413C17.0232 19.807 16.5522 20.0027 15.9995 20ZM4.19951 2H18.9495C19.3328 2 19.6245 2.171 19.8245 2.513C20.0245 2.855 20.0328 3.20067 19.8495 3.55L16.2995 9.95C16.1162 10.2833 15.8705 10.5417 15.5625 10.725C15.2545 10.9083 14.9168 11 14.5495 11H7.09951L5.99951 13H17.9995V15H5.99951C5.24951 15 4.68285 14.671 4.29951 14.013C3.91618 13.355 3.89951 12.7007 4.24951 12.05L5.59951 9.6L1.99951 2H-0.000488281V0H3.24951L4.19951 2Z" fill="#4F709C"/>
</svg>
