<svg width="35" height="35" viewBox="0 0 35 35" fill="none" xmlns="http://www.w3.org/2000/svg">
<path d="M4.33001 0.194687C4.60983 0.0170535 4.94874 -0.0421766 5.27222 0.0300209C5.5957 0.102218 5.87727 0.299932 6.05501 0.579687L15.23 14.9997H19.7675L11.445 1.92469C11.267 1.64488 11.2074 1.30582 11.2794 0.982085C11.3513 0.65835 11.549 0.376464 11.8288 0.198437C12.1086 0.0204105 12.4476 -0.0391731 12.7714 0.032794C13.0951 0.104761 13.377 0.302384 13.555 0.582187L22.73 14.9997H33.8225C34.4725 14.9997 35 15.5247 35 16.1747V17.4997C35 19.2372 34.7475 20.9147 34.275 22.4997H0.725006C0.24276 20.8769 -0.00145076 19.1926 6.48324e-06 17.4997V16.1747C6.48324e-06 15.5247 0.525007 14.9997 1.17501 14.9997H12.2675L3.94501 1.92469C3.76737 1.64487 3.70814 1.30595 3.78034 0.982472C3.85254 0.65899 4.05025 0.377424 4.33001 0.199687M17.5 34.9997C14.1878 35.0004 10.9433 34.061 8.14378 32.2909C5.34423 30.5207 3.10454 27.9923 1.68501 24.9997H33.315C31.8955 27.9923 29.6558 30.5207 26.8562 32.2909C24.0567 34.061 20.8123 35.0004 17.5 34.9997Z" fill="#3D5576"/>
</svg>
