<svg width="10" height="11" viewBox="0 0 10 11" fill="none" xmlns="http://www.w3.org/2000/svg">
<path d="M8.91441 6.28576H5.48584V9.71433C5.48584 9.8962 5.41359 10.0706 5.285 10.1992C5.1564 10.3278 4.98198 10.4 4.80012 10.4C4.61826 10.4 4.44385 10.3278 4.31525 10.1992C4.18665 10.0706 4.11441 9.8962 4.11441 9.71433V6.28576H0.685836C0.503974 6.28576 0.32956 6.21352 0.200963 6.08492C0.0723669 5.95633 0.00012207 5.78191 0.00012207 5.60005C0.00012207 5.41819 0.0723669 5.24377 0.200963 5.11518C0.32956 4.98658 0.503974 4.91434 0.685836 4.91434H4.11441V1.48576C4.11441 1.3039 4.18665 1.12949 4.31525 1.00089C4.44385 0.872293 4.61826 0.800049 4.80012 0.800049C4.98198 0.800049 5.1564 0.872293 5.285 1.00089C5.41359 1.12949 5.48584 1.3039 5.48584 1.48576V4.91434H8.91441C9.09627 4.91434 9.27069 4.98658 9.39928 5.11518C9.52788 5.24377 9.60012 5.41819 9.60012 5.60005C9.60012 5.78191 9.52788 5.95633 9.39928 6.08492C9.27069 6.21352 9.09627 6.28576 8.91441 6.28576Z" fill="#222222"/>
</svg>
